<svg width="124" height="124" viewBox="0 0 124 124" fill="none" xmlns="http://www.w3.org/2000/svg">
<circle cx="61.5139" cy="61.5139" r="61.5139" fill="#B7D1F9" fill-opacity="0.4"/>
<path d="M63.2739 65.9467L65.7943 66.2954L64.0106 67.9529H64.0111C63.7067 68.2377 63.5685 68.6574 63.6439 69.0667L64.0773 71.4783L61.7247 70.2995H61.7241C61.3777 70.1252 60.9689 70.1252 60.6224 70.2995L58.2698 71.4783L58.7032 69.0667C58.7781 68.6573 58.6398 68.2376 58.336 67.9529L56.5522 66.2954L59.0727 65.9467C59.4667 65.8921 59.8093 65.6494 59.9924 65.2964L61.1723 63.0121L62.3549 65.2964C62.5374 65.6494 62.8801 65.8921 63.2741 65.9467H63.2739ZM73.8015 49.5908L75.5852 47.9332L73.0648 47.5846C72.6707 47.5299 72.3281 47.2873 72.145 46.9343L70.9651 44.6499L69.7825 46.9331C69.6 47.2862 69.2574 47.5288 68.8633 47.5829L66.3429 47.9316L68.1266 49.5891L68.1261 49.5897C68.4305 49.8744 68.5687 50.2941 68.4933 50.7034L68.0599 53.115L70.4125 51.9363H70.4131C70.7596 51.7614 71.1683 51.7614 71.5148 51.9363L73.8674 53.115L73.434 50.7034C73.3602 50.2941 73.4996 49.8749 73.804 49.5908L73.8015 49.5908ZM54.2152 49.5908L55.999 47.9332L53.4785 47.5846C53.0845 47.5299 52.7418 47.2873 52.5588 46.9343L51.3789 44.6499L50.1963 46.9331C50.0138 47.2862 49.6711 47.5288 49.2771 47.5829L46.7566 47.9316L48.5404 49.5891L48.5398 49.5897C48.8442 49.8744 48.9825 50.2941 48.9071 50.7034L48.4737 53.115L50.8263 51.9363H50.8268C51.1733 51.7614 51.5821 51.7614 51.9286 51.9363L54.2811 53.115L53.8478 50.7034C53.774 50.2941 53.9133 49.8749 54.2177 49.5908L54.2152 49.5908ZM42.7685 65.2948L41.5859 63.0116L40.4033 65.2948C40.2207 65.6478 39.8781 65.8904 39.4841 65.9445L36.9636 66.2932L38.7473 67.9508L38.7468 67.9513C39.0512 68.236 39.1895 68.6557 39.114 69.0651L38.6807 71.4767L41.0333 70.2979H41.0338C41.3803 70.123 41.789 70.123 42.1355 70.2979L44.4881 71.4767L44.0547 69.0651C43.9799 68.6557 44.1181 68.236 44.422 67.9513L46.2057 66.2938L43.6853 65.9451V65.9445C43.2923 65.8893 42.9502 65.6472 42.7682 65.2948H42.7685ZM100.345 60.2758C100.345 79.1751 82.772 94.5517 61.1725 94.5517C56.282 94.5626 51.4242 93.756 46.8004 92.1657C37.5583 96.9387 23.816 97 23.2242 97C22.6974 97 22.2296 96.6628 22.0629 96.1628C21.8962 95.6633 22.0684 95.1124 22.4897 94.7965C26.4119 91.6356 29.7755 87.8397 32.4419 83.5662C29.1903 80.6136 26.5846 77.0198 24.7877 73.0119C22.9908 69.004 22.0416 64.668 22.0001 60.2759C22.0001 41.3766 39.5731 26 61.1725 26C82.772 26 100.345 41.3766 100.345 60.2759V60.2758ZM50.0993 65.0685C49.9572 64.6171 49.5676 64.2882 49.0992 64.2237L44.6519 63.6116L42.6736 59.7861C42.4419 59.4074 42.0303 59.1768 41.5866 59.1768C41.1429 59.1768 40.7313 59.4074 40.4996 59.7861L38.5263 63.6077L34.079 64.2197C33.6106 64.2848 33.2215 64.6132 33.0795 65.0641C32.9368 65.5149 33.0669 66.0073 33.4134 66.3292L36.5961 69.2879L35.848 73.4499C35.766 73.9057 35.9485 74.3691 36.3196 74.6468C36.6906 74.9244 37.1863 74.9686 37.6011 74.761L41.5866 72.7619L45.5771 74.761C45.9918 74.9686 46.4875 74.9244 46.8586 74.6468C47.2297 74.3691 47.4122 73.9057 47.3302 73.4499L46.5821 69.2879L49.7648 66.3292C50.1097 66.0079 50.2397 65.5177 50.0993 65.0685L50.0993 65.0685ZM51.3797 54.3999L55.3702 56.399C55.7849 56.6066 56.2806 56.5624 56.6517 56.2848C57.0228 56.0071 57.2053 55.5437 57.1233 55.0879L56.3752 50.9259L59.5579 47.9672C59.9044 47.6453 60.0345 47.1529 59.8918 46.7021C59.7497 46.2512 59.3606 45.9228 58.8923 45.8578L54.445 45.2457L52.4666 41.4241C52.2349 41.0454 51.8234 40.8148 51.3796 40.8148C50.9359 40.8148 50.5244 41.0454 50.2927 41.4241L48.3194 45.2457L43.872 45.8578C43.4037 45.9228 43.0146 46.2512 42.8725 46.7021C42.7299 47.1529 42.8599 47.6453 43.2064 47.9672L46.3892 50.9259L45.641 55.0879C45.559 55.5437 45.7416 56.0071 46.1126 56.2848C46.4837 56.5624 46.9794 56.6066 47.3942 56.399L51.3797 54.3999ZM69.6859 65.0669C69.5438 64.616 69.1542 64.287 68.6858 64.2225L64.2385 63.6105L62.2601 59.7861C62.0284 59.4074 61.6169 59.1768 61.1732 59.1768C60.7294 59.1768 60.3179 59.4074 60.0862 59.7861L58.1129 63.6077L53.6655 64.2197C53.1972 64.2848 52.8081 64.6132 52.666 65.0641C52.5234 65.5149 52.6534 66.0073 52.9999 66.3292L56.1827 69.2878L55.4345 73.4499C55.3526 73.9057 55.5351 74.3691 55.9062 74.6467C56.2772 74.9244 56.7729 74.9686 57.1877 74.761L61.1732 72.7619L65.1636 74.761C65.5784 74.9686 66.0741 74.9244 66.4452 74.6467C66.8162 74.3691 66.9987 73.9057 66.9168 73.4499L66.1686 69.2878L69.3514 66.3292C69.6962 66.0079 69.8263 65.5177 69.6858 65.0684L69.6859 65.0669ZM70.9663 54.3999L74.9567 56.399C75.3715 56.6066 75.8672 56.5624 76.2383 56.2848C76.6093 56.0071 76.7919 55.5437 76.7099 55.0879L75.9617 50.9259L79.1445 47.9672C79.491 47.6453 79.621 47.1529 79.4784 46.7021C79.3363 46.2512 78.9472 45.9228 78.4789 45.8578L74.0315 45.2457L72.0532 41.4241C71.8215 41.0454 71.41 40.8148 70.9662 40.8148C70.5225 40.8148 70.111 41.0454 69.8793 41.4241L67.9059 45.2457L63.4586 45.8578C62.9902 45.9228 62.6012 46.2512 62.4591 46.7021C62.3164 47.1529 62.4465 47.6453 62.793 47.9672L65.9757 50.9259L65.2276 55.0879C65.1456 55.5437 65.3281 56.0071 65.6992 56.2848C66.0703 56.5624 66.5659 56.6066 66.9807 56.399L70.9663 54.3999ZM89.2725 65.0669C89.1304 64.616 88.7407 64.287 88.2724 64.2225L83.825 63.6105L81.8467 59.7861C81.615 59.4074 81.2035 59.1768 80.7597 59.1768C80.316 59.1768 79.9045 59.4074 79.6728 59.7861L77.6995 63.6077L73.2521 64.2197C72.7838 64.2848 72.3947 64.6132 72.2526 65.0641C72.11 65.5149 72.24 66.0073 72.5865 66.3292L75.7693 69.2878L75.0211 73.4499C74.9391 73.9057 75.1217 74.3691 75.4927 74.6467C75.8638 74.9244 76.3595 74.9686 76.7743 74.761L80.7598 72.7619L84.7502 74.761C85.165 74.9686 85.6606 74.9244 86.0317 74.6467C86.4028 74.3691 86.5853 73.9057 86.5033 73.4499L85.7552 69.2878L88.938 66.3292C89.2828 66.0079 89.4128 65.5177 89.2724 65.0684L89.2725 65.0669ZM81.9423 65.2948L80.7597 63.0116L79.5771 65.2948C79.3946 65.6478 79.0519 65.8904 78.6579 65.9445L76.1374 66.2932L77.9212 67.9507L77.9206 67.9513C78.225 68.236 78.3633 68.6557 78.2879 69.065L77.8545 71.4767L80.2071 70.2979H80.2076C80.5541 70.123 80.9629 70.123 81.3094 70.2979L83.662 71.4767L83.2286 69.065C83.1537 68.6557 83.292 68.236 83.5958 67.9513L85.3796 66.2937L82.8591 65.9451V65.9445C82.4662 65.8893 82.1241 65.6472 81.9421 65.2948H81.9423Z" fill="#192A88"/>
</svg>
