<svg width="124" height="124" viewBox="0 0 124 124" fill="none" xmlns="http://www.w3.org/2000/svg">
<circle cx="61.5139" cy="61.5139" r="61.5139" fill="#F9D2FF" fill-opacity="0.4"/>
<path d="M88.9068 75.4819H81.312L81.3116 88.8944C81.3116 91.4363 79.276 93.5071 76.75 93.5732C76.8939 93.6287 77.0493 93.6625 77.2132 93.6625H94.566C95.2801 93.6625 95.8587 93.0838 95.8587 92.3698V74.6872C95.8587 73.9732 95.2801 73.3945 94.566 73.3945H92.8016C91.9601 74.6518 90.5284 75.4812 88.9066 75.4812L88.9068 75.4819Z" fill="#A634B9"/>
<path d="M92.9459 61.6673V61.6602C92.9246 61.6677 92.9041 61.6761 92.8828 61.6837L92.9459 61.6673Z" fill="#A634B9"/>
<path d="M84.8251 66.7558H76.6238C75.5602 66.7558 74.5192 67.1861 73.7674 67.9388C73.0143 68.6906 72.584 69.7319 72.584 70.7956V88.8942C72.584 91.1253 74.3923 92.9335 76.6238 92.9335C78.8548 92.9335 80.6636 91.1253 80.6636 88.8942L80.664 74.8359H85.4516V74.8364H88.9043V74.8368C88.9061 74.8368 88.9074 74.8364 88.9097 74.8364C91.1384 74.8337 92.9441 73.0267 92.9441 70.797H92.9446V66.4766H84.8028L84.8251 66.7558Z" fill="#A634B9"/>
<path d="M69.0223 88.8956V74.8374H71.9378V70.7976C71.9378 69.5626 72.4382 68.3552 73.3113 67.4839C73.5955 67.1992 73.9179 66.9585 74.263 66.7578H64.9821C64.1765 66.7578 63.3847 67.0065 62.7203 67.4532C62.731 67.4639 62.743 67.4728 62.7536 67.4834C63.6267 68.3569 64.1263 69.5649 64.1263 70.798V88.8967C64.1263 90.2063 63.5854 91.3902 62.7168 92.241C63.3629 92.6798 64.1427 92.936 64.9821 92.936C67.2141 92.9365 69.0223 91.1277 69.0223 88.8967L69.0223 88.8956Z" fill="#A634B9"/>
<path d="M88.9456 37.2714C88.9456 41.2876 85.69 44.5432 81.6737 44.5432C77.6579 44.5432 74.4023 41.2876 74.4023 37.2714C74.4023 33.2556 77.6579 30 81.6737 30C85.69 30 88.9456 33.2556 88.9456 37.2714Z" fill="#A634B9"/>
<path d="M30.8335 64.4699V62.5977H24V65.5064H30.8335V64.4699Z" fill="#A634B9"/>
<path d="M49.6055 62.5977H99.1379V65.5064H49.6055V62.5977Z" fill="#A634B9"/>
<path d="M53.3532 92.3698V75.4819H35.5195C34.7619 75.4819 34.0483 75.2972 33.4141 74.9766V92.3703C33.4141 93.0844 33.9927 93.663 34.7068 93.663H52.0608C52.7744 93.6635 53.3535 93.0848 53.3535 92.3708L53.3532 92.3698Z" fill="#A634B9"/>
<path d="M42.562 30.0547C38.5466 30.0547 35.291 33.3103 35.291 37.3261C35.291 38.9922 35.8528 40.527 36.7951 41.7531H46.4605C46.6084 41.7531 46.7554 41.7642 46.9095 41.7868C47.0405 41.7717 47.1555 41.7642 47.2679 41.7642H47.3216C47.6254 41.7642 47.934 41.8033 48.2364 41.8712C49.2352 40.626 49.8338 39.0464 49.8338 37.3261C49.8334 33.3103 46.5778 30.0547 42.562 30.0547L42.562 30.0547Z" fill="#A634B9"/>
<path d="M30.8336 54.8408C30.1999 54.3501 29.9321 53.9273 29.798 53.5925C29.7975 53.5921 29.7975 53.5917 29.7971 53.5908C29.7296 53.4145 29.699 53.24 29.6847 53.0525C29.6808 53.0019 29.6714 52.9557 29.6714 52.9024C29.6683 52.4557 29.8198 51.8629 30.1644 51.2132C30.4757 50.6124 30.9495 49.9867 31.4797 49.4311V70.797C31.4797 73.0281 33.288 74.8368 35.5195 74.8368H55.4018V88.895C55.4018 91.1257 57.2101 92.9348 59.4416 92.9348C61.6727 92.9348 63.4814 91.1257 63.4814 88.895V70.7964C63.4814 69.7328 63.0511 68.6923 62.2984 67.9396C61.5461 67.1883 60.5052 66.7566 59.4416 66.7566H48.9609V59.6434C50.0538 60.7327 51.3501 61.1981 52.494 61.4859C53.796 61.7972 55.0199 61.8567 55.9618 61.8593C56.9232 61.8589 57.5841 61.7874 57.652 61.7799C59.0721 61.624 60.0962 60.3469 59.9399 58.928C59.7836 57.5083 58.5055 56.4837 57.0862 56.6405C57.028 56.6463 56.5737 56.6885 55.9613 56.6885C55.2814 56.6902 54.3972 56.629 53.7053 56.4589C52.9948 56.3017 52.592 56.0064 52.5907 55.9673C52.1351 55.4117 51.7887 54.5444 51.5942 53.4178C51.2887 51.7293 51.3668 49.6462 51.2869 47.7585C51.2278 46.7975 51.1807 45.8836 50.7522 44.8049C50.5302 44.2734 50.1629 43.6539 49.5173 43.156C48.8791 42.6511 48.003 42.3967 47.2702 42.41C47.1445 42.41 47.0219 42.422 46.9016 42.4388C46.7599 42.4135 46.6138 42.3984 46.4637 42.3984H33.9777C33.7823 42.3984 33.5927 42.4229 33.4097 42.4659C32.415 42.6023 31.6143 42.9811 30.7879 43.4363C29.3171 44.2898 27.8699 45.5381 26.6713 47.1119C25.4944 48.6809 24.5188 50.6117 24.502 52.9014C24.502 53.0289 24.5122 53.1585 24.5188 53.2878C24.5552 53.9752 24.6894 54.6795 24.9456 55.3651C24.9567 55.3984 24.9656 55.4322 24.9789 55.4655V55.4651C25.6259 57.1433 26.9497 58.5888 28.7554 59.6772C29.3833 60.0578 30.077 60.4019 30.8341 60.7172L30.8336 54.8408Z" fill="#A634B9"/>
<path d="M64.2012 62.2803L64.8735 61.588L65.3234 61.1244C65.7128 61.4774 66.212 61.7172 66.7751 61.7794C66.8435 61.787 67.5043 61.8585 68.4653 61.8589C69.4072 61.8558 70.6311 61.7967 71.9331 61.4854C73.0767 61.1977 74.3733 60.7323 75.4662 59.6429V61.6275H80.312L81.9338 49.677C82.353 49.8342 82.794 49.9164 83.2345 49.9159H83.235H83.2367C83.6773 49.9159 84.1182 49.8338 84.5361 49.6765L85.6011 57.5213C86.0718 56.9772 86.705 56.6073 87.4223 56.4688C90.252 55.9239 91.8276 55.2094 92.65 54.7053C92.7579 54.6391 92.8551 54.5752 92.9466 54.5121V49.4301C93.4768 49.9856 93.9507 50.6109 94.2619 51.2122C94.6065 51.8619 94.758 52.4543 94.7549 52.9014C94.7544 52.9547 94.7455 53.0014 94.7415 53.0515C94.7278 53.2389 94.6967 53.413 94.6292 53.5898C94.6292 53.5902 94.6287 53.5907 94.6287 53.5915C94.595 53.6746 94.5506 53.7647 94.4982 53.858C94.2797 54.2443 93.8663 54.7169 92.9883 55.2569C91.9066 55.9186 90.1378 56.6038 87.5452 57.1034C86.1437 57.3742 85.2266 58.7304 85.4989 60.1333C85.7374 61.3692 86.8205 62.2271 88.0337 62.2271C88.1972 62.2271 88.3624 62.2116 88.5284 62.1796C91.5331 61.5952 93.8556 60.7758 95.6715 59.6767C96.6076 59.1123 97.411 58.4502 98.0615 57.7117C98.665 57.0251 99.1362 56.2734 99.4483 55.4651V55.4655C99.4608 55.4322 99.4696 55.3984 99.4812 55.3651C99.7383 54.6795 99.8724 53.9751 99.9084 53.2878C99.915 53.159 99.9257 53.0289 99.9248 52.9014C99.9084 50.6122 98.9327 48.6809 97.7559 47.1119C96.5574 45.5385 95.1097 44.2898 93.6393 43.4363C92.8124 42.9811 92.0122 42.6023 91.0175 42.4659C90.8345 42.4229 90.6454 42.3984 90.4495 42.3984H87.6997C86.2467 44.1042 84.0853 45.1886 81.6744 45.1886C79.3786 45.1886 77.3082 44.205 75.8605 42.6382C75.5194 42.7621 75.1917 42.9331 74.9101 43.1556C74.2644 43.6534 73.8972 44.2729 73.6752 44.8044C73.2466 45.8831 73.1996 46.797 73.1405 47.758C73.0606 49.6457 73.1387 51.729 72.8332 53.4173C72.6378 54.5439 72.2923 55.4112 71.8367 55.9668C71.8354 56.0059 71.4326 56.3012 70.722 56.4584C70.4063 56.5361 70.0506 56.5903 69.6922 56.6267L70.4383 55.8585L71.2532 55.02L70.3259 54.1194L68.459 56.0414L67.8448 56.6738C67.5642 56.6609 67.3777 56.6436 67.3417 56.64C65.922 56.4837 64.6443 57.5077 64.488 58.9275C64.4462 59.3054 64.4906 59.6731 64.6026 60.0123L64.1078 60.5222L63.1211 61.5378L63.213 61.627L64.0483 62.4384L64.2012 62.2803ZM82.0065 45.7415H84.4626L85.0768 48.1652L84.9835 48.3127C84.4782 48.7345 83.8578 48.9459 83.2343 48.9468C82.6112 48.9464 81.9926 48.735 81.4873 48.314L81.3927 48.1652L82.0065 45.7415Z" fill="#A634B9"/>
</svg>
