<svg width="124" height="124" viewBox="0 0 124 124" fill="none" xmlns="http://www.w3.org/2000/svg">
<path d="M55.0269 33.0156V41.8304H39V37.4803C39 34.9618 41.1751 33.0156 43.8081 33.0156H55.0269Z" fill="#56C870"/>
<path d="M42.7797 81.5518H39.002V44.4609H42.7797V81.5518Z" fill="#56C870"/>
<path d="M72.3125 64.9531H76.0903V81.5531H72.3125V64.9531Z" fill="#56C870"/>
<path d="M89.7135 25H58.8044C57.4307 25 56.4004 26.1448 56.4004 27.404V61.0606C56.4004 62.4343 57.4307 63.4646 58.8044 63.4646H89.7135C91.0873 63.4646 92.1176 62.3199 92.1176 61.0606V27.404C92.1176 26.1448 91.0873 25 89.7135 25ZM67.1607 40.798L66.8172 40.3401V40.1111C66.8172 40.1111 70.595 37.5926 71.7398 37.0202C70.595 36.2189 70.0226 35.1886 70.0226 33.9293C70.0226 33.2424 70.2516 32.67 70.824 32.2121C71.3964 31.7542 72.0832 31.5253 72.8846 31.5253C74.3728 31.5253 75.6321 32.4411 76.3189 34.1582V34.2727L76.2044 34.3872H76.09C76.09 34.3872 75.9755 34.3872 75.9755 34.2727C75.0597 33.0135 74.0294 32.4411 72.8846 32.4411C71.6253 32.4411 71.0529 33.0135 71.0529 34.0438C71.0529 35.303 71.8543 36.2189 73.457 36.9057L73.5715 37.0202C73.5715 37.1347 73.5715 37.1347 73.457 37.1347L67.5041 40.9125C67.3896 40.9125 67.1607 40.9125 67.1607 40.798ZM72.7701 42.1717C74.4873 40.4545 75.5176 39.0808 76.09 38.165C76.7768 37.1347 77.0058 36.1044 77.0058 34.9596C77.0058 33.5859 76.5479 32.4411 75.7465 31.6397C74.9452 30.8384 73.9149 30.3805 72.6556 30.3805C71.5108 30.3805 70.595 30.7239 69.7937 31.4108C68.9923 32.0976 68.6489 32.899 68.6489 33.9293C68.6489 34.9596 69.3358 35.8754 70.595 36.6768L70.7095 36.7912C70.7095 36.9057 70.7095 36.9057 70.595 36.9057C70.3661 37.0202 66.9317 39.1953 65.7869 40.2256H65.6725C65.6725 40.2256 65.558 40.2256 65.558 40.1111C64.2987 38.6229 63.7263 37.0202 63.7263 35.303C63.7263 33.1279 64.6422 31.2963 66.3593 29.9226C67.8475 28.6633 70.1371 27.9764 72.7701 27.9764C75.5176 27.9764 77.9216 28.7778 79.7533 30.266C81.5849 31.7542 82.6152 33.7003 82.6152 35.9899C82.6152 37.5926 82.2718 38.9663 81.4704 40.2256C80.6691 41.3704 79.2954 42.6296 77.4637 43.8889L74.7162 45.7205C73.9149 46.2929 73.1135 47.0943 72.4267 48.0101C71.7398 48.9259 71.5108 49.6128 71.5108 50.1852L71.6253 51.5589C71.6253 51.7879 71.5108 52.1313 71.3964 52.3603C71.1674 52.5892 70.9385 52.7037 70.7095 52.5892C70.2516 52.5892 69.9082 52.2458 69.5647 51.6734C69.1068 50.9865 68.9923 50.2997 68.9923 49.6128C68.9923 47.3232 70.2516 44.8047 72.7701 42.1717ZM72.4267 60.4882C70.595 60.4882 69.2213 59 69.2213 57.2828C69.2213 55.4512 70.7095 54.0774 72.4267 54.0774C74.2583 54.0774 75.6321 55.5657 75.6321 57.2828C75.6321 59.1145 74.1438 60.4882 72.4267 60.4882ZM83.0731 41.7138C82.3863 42.5152 80.6691 44.0034 77.6927 46.2929L76.3189 47.3232C74.7162 48.5825 73.8004 49.7273 73.8004 50.7576C73.8004 51.33 74.0294 52.0168 74.4873 52.7037V52.9327C74.4873 52.9327 73.3425 52.7037 73.228 52.7037C72.8846 52.1313 72.7701 51.4444 72.7701 50.7576C72.7701 49.8417 73.1135 48.9259 73.6859 48.2391C74.2583 47.4377 75.4031 46.5219 77.0058 45.4916C79.6388 43.6599 81.5849 42.0572 82.5007 40.6835C83.531 39.4242 83.989 37.8215 83.989 36.1044C83.989 34.8451 83.6455 33.5859 83.0731 32.5556C82.5007 31.4108 81.6994 30.6094 80.7836 29.9226L80.6691 29.8081V29.6936L81.0125 29.3502H81.127C83.6455 31.1818 84.9048 33.5859 84.9048 36.4478C84.9048 38.2795 84.3324 40.1111 83.0731 41.7138ZM72.4267 55.336C71.2819 55.336 70.4805 56.2519 70.4805 57.2822C70.4805 58.427 71.3964 59.2283 72.4267 59.2283C73.457 59.2283 74.3728 58.3125 74.3728 57.2822C74.3728 56.2519 73.457 55.336 72.4267 55.336Z" fill="#56C870"/>
<path d="M76.0909 84.1875H39V87.8508C39 91.1707 40.9461 93.0023 44.3805 93.0023H70.8243C74.2586 93.0023 76.2047 91.1707 76.2047 87.8508C76.0903 86.5915 76.0903 85.3323 76.0903 84.1875H76.0909ZM62.6963 89.2245C62.6963 89.568 62.3529 89.9114 61.895 89.9114H53.1946C52.7367 89.9114 52.3933 89.568 52.3933 89.2245V87.9653C52.3933 87.6218 52.7367 87.2784 53.1946 87.2784H61.895C62.3529 87.2784 62.6963 87.6218 62.6963 87.9653V89.2245Z" fill="#56C870"/>
<circle cx="61.5139" cy="61.5139" r="61.5139" fill="#56C870" fill-opacity="0.2"/>
</svg>
