<svg width="124" height="124" viewBox="0 0 124 124" fill="none" xmlns="http://www.w3.org/2000/svg">
<circle cx="61.5139" cy="61.5139" r="61.5139" fill="#DDDEFF" fill-opacity="0.4"/>
<path d="M98.23 89.7009L86.0213 77.4922C84.8832 76.3541 83.3692 75.7299 81.7607 75.7299C80.6655 75.7299 79.6217 76.0205 78.7063 76.56L74.959 72.8128C79.9298 67.3287 82.6506 60.2871 82.6506 52.8259C82.6506 44.8604 79.5449 37.366 73.9152 31.736C68.2767 26.1057 60.7904 23 52.8253 23C44.8598 23 37.3654 26.1057 31.7354 31.7354C26.1057 37.3651 23 44.8596 23 52.8253C23 60.7909 26.1057 68.2776 31.7354 73.9152C37.3651 79.5449 44.8596 82.6506 52.8253 82.6506C60.2859 82.6506 67.3276 79.9298 72.8121 74.959L76.5768 78.7153C75.2251 81.0255 75.5157 84.0454 77.4923 86.0219L89.7011 98.2306C90.8392 99.3771 92.3532 100.002 93.9705 100.002C95.5788 100.002 97.0935 99.3771 98.2311 98.2306C99.3776 97.0925 100.002 95.5785 100.002 93.97C100.002 92.3533 99.3776 90.8386 98.2311 89.7006L98.23 89.7009ZM52.825 75.7124C46.6988 75.7124 40.9498 73.3343 36.6379 69.0133C27.7055 60.09 27.7055 45.5614 36.6379 36.639C40.9498 32.3182 46.6993 29.9398 52.825 29.9398C58.9508 29.9398 64.7002 32.318 69.0122 36.639C77.9355 45.5623 77.9355 60.0909 69.0122 69.0133C64.7002 73.3341 58.9508 75.7124 52.825 75.7124Z" fill="#696EFF"/>
</svg>
